<?xml version="1.0" encoding="utf-8"?>
<!-- Generator: Adobe Illustrator 27.5.0, SVG Export Plug-In . SVG Version: 6.00 Build 0)  -->
<svg version="1.1" xmlns="http://www.w3.org/2000/svg" xmlns:xlink="http://www.w3.org/1999/xlink"
	 viewBox="3300 -200 2000 1000">
	<g id="Dimensions">
		<g id="Layer_x5F_1">
			<path style="fill-rule:evenodd;clip-rule:evenodd;fill:#FF0000;" d="M3361.827,280.586
				c-75.009-48.101-24.254-148.33,38.381-188.166c113.087-71.93,328.051-86.493,418.502-97.913
				c182.159-22.997,464.019-54.602,594.264-185.867c56.436-56.878,111.94-141.782,211.536-106.562
				c128.482,45.441,99.223,248.502,91.9,354.284c-2.526,36.518-9.197,109.409-11.426,176.886
				c99.781-106.085,178.964-232.786,276.178-326.287c60.196-57.897,156.619-108.745,226.261-29.958
				c52.606,59.515,39.114,147.486,26.152,229.975c175.838-164.372,452.284-534.872,580.895-657.801
				c41.564-39.725,66.535-19.633,43.13,26.623c-71.604,141.52-303.191,502.9-381.519,609.549
				c-71.01,96.685-214.026,306.02-348.783,277.441c-68.426-14.511-93.868-70.231-101.766-136.142
				c-7.543,11.135-15.041,22.077-22.502,32.694c-83.432,118.651-241.063,354.843-410.371,311.369
				c-195.692-50.243-138.301-346.857-106.976-562.42c-145.729,89.642-333.673,113.815-500.082,121.777
				c-149.302,7.148-360.786-6.723-496.869,16.705c-110.549,19.033-153.68,79.514-126.899,133.814H3361.827z"/>
			<path style="fill-rule:evenodd;clip-rule:evenodd;fill:#1976d2;" d="M4085.866,123.106c154.058,0.937,346.38,36.943,367.304,207.147
				c-2.474-102.738,17.863-221.203,32.502-321.963C4368.627,80.29,4224.348,110.051,4085.866,123.106z"/>
			<path style="fill-rule:evenodd;clip-rule:evenodd;fill:#1976d2;" d="M5003.024,259.336c-36.814,52.356-88.07,127.592-148.406,191.589
				c37.996-34.172,128.04-96.533,272.633-88.152c-68.397-14.528-93.827-70.236-101.725-136.13
				C5017.983,237.777,5010.486,248.719,5003.024,259.336L5003.024,259.336z"/>
		</g>
	</g>
</svg>
